<?xml version="1.0" encoding="UTF-8" standalone="no"?>
<!DOCTYPE svg PUBLIC "-//W3C//DTD SVG 1.1//EN"
 "http://www.w3.org/Graphics/SVG/1.1/DTD/svg11.dtd">
<!-- Generated by graphviz version 2.40.1 (20161225.0304)
 -->
<!-- Title: %3 Pages: 1 -->
<svg width="154pt" height="301pt"
 viewBox="0.00 0.00 153.62 301.08" xmlns="http://www.w3.org/2000/svg" xmlns:xlink="http://www.w3.org/1999/xlink">
<g id="graph0" class="graph" transform="scale(1 1) rotate(0) translate(4 297.0836)">
<title>%3</title>
<polygon fill="#ffffff" stroke="transparent" points="-4,4 -4,-297.0836 149.6189,-297.0836 149.6189,4 -4,4"/>
<!-- A -->
<g id="node1" class="node">
<title>A</title>
<polygon fill="#d3d3d3" stroke="#000000" points="33.1226,-293.0836 10.1122,-293.0836 10.1122,-276.0836 33.1226,-276.0836 33.1226,-293.0836"/>
<text text-anchor="middle" x="21.6174" y="-281.8836" font-family="Times,serif" font-size="9.00" fill="#000000">A</text>
</g>
<!-- A XOR B -->
<g id="node3" class="node">
<title>A XOR B</title>
<ellipse fill="#add8e6" stroke="#000000" cx="81.6174" cy="-36.4246" rx="36.3494" ry="36.3494"/>
<text text-anchor="middle" x="81.6174" y="-33.7246" font-family="Times,serif" font-size="9.00" fill="#000000">A XOR B</text>
</g>
<!-- A&#45;&gt;A XOR B -->
<g id="edge1" class="edge">
<title>A&#45;&gt;A XOR B</title>
<path fill="none" stroke="#00ff00" stroke-width=".8681" d="M18.0176,-275.907C14.5616,-267.0725 9.5846,-252.8918 7.6174,-240.0836 -1.2629,-182.2661 -6.3258,-162.22 17.6174,-108.8493 24.4346,-93.6533 35.5866,-79.3534 46.6871,-67.5391"/>
<polygon fill="#00ff00" stroke="#00ff00" stroke-width=".8681" points="49.4289,-69.7419 53.9283,-60.1499 44.4293,-64.8425 49.4289,-69.7419"/>
</g>
<!-- 1112 -->
<g id="node4" class="node">
<title>1112</title>
<ellipse fill="#ffffff" stroke="#000000" cx="50.6174" cy="-132.4248" rx="23.6513" ry="23.6513"/>
<text text-anchor="middle" x="50.6174" y="-129.7248" font-family="Times,serif" font-size="9.00" fill="#000000">1112</text>
</g>
<!-- A&#45;&gt;1112 -->
<g id="edge5" class="edge">
<title>A&#45;&gt;1112</title>
<path fill="none" stroke="#00ff00" stroke-width=".1425" stroke-dasharray="1,5" d="M19.0369,-275.967C14.4856,-259.3724 6.266,-221.9688 14.6174,-192.0003 17.7966,-180.592 23.8173,-169.1877 30.0382,-159.4561"/>
<polygon fill="#00ff00" stroke="#00ff00" stroke-width=".1425" points="33.029,-161.2814 35.7317,-151.0371 27.2305,-157.36 33.029,-161.2814"/>
</g>
<!-- 355 -->
<g id="node5" class="node">
<title>355</title>
<ellipse fill="#ffffff" stroke="#000000" cx="110.6174" cy="-216.0419" rx="20.7202" ry="20.7202"/>
<text text-anchor="middle" x="110.6174" y="-213.3419" font-family="Times,serif" font-size="9.00" fill="#000000">355</text>
</g>
<!-- A&#45;&gt;355 -->
<g id="edge4" class="edge">
<title>A&#45;&gt;355</title>
<path fill="none" stroke="#ff0000" stroke-width=".7113" d="M33.0032,-276.1507C44.941,-267.2728 64.2093,-252.8416 80.6174,-240.0836 82.4155,-238.6855 84.2672,-237.2329 86.1265,-235.7653"/>
<polygon fill="#ff0000" stroke="#ff0000" stroke-width=".7113" points="88.5354,-238.3213 94.1816,-229.3563 84.1771,-232.8436 88.5354,-238.3213"/>
</g>
<!-- 1420 -->
<g id="node6" class="node">
<title>1420</title>
<ellipse fill="#ffffff" stroke="#000000" cx="47.6174" cy="-216.0419" rx="24.0833" ry="24.0833"/>
<text text-anchor="middle" x="47.6174" y="-213.3419" font-family="Times,serif" font-size="9.00" fill="#000000">1420</text>
</g>
<!-- A&#45;&gt;1420 -->
<g id="edge6" class="edge">
<title>A&#45;&gt;1420</title>
<path fill="none" stroke="#00ff00" stroke-width=".1304" d="M24.9103,-275.9027C27.5819,-268.8597 31.5243,-258.4667 35.3774,-248.3092"/>
<polygon fill="#00ff00" stroke="#00ff00" stroke-width=".1304" points="38.7255,-249.351 38.9998,-238.7597 32.1806,-246.8682 38.7255,-249.351"/>
</g>
<!-- B -->
<g id="node2" class="node">
<title>B</title>
<polygon fill="#d3d3d3" stroke="#000000" points="145.6203,-293.0836 123.6145,-293.0836 123.6145,-276.0836 145.6203,-276.0836 145.6203,-293.0836"/>
<text text-anchor="middle" x="134.6174" y="-281.8836" font-family="Times,serif" font-size="9.00" fill="#000000">B</text>
</g>
<!-- B&#45;&gt;A XOR B -->
<g id="edge10" class="edge">
<title>B&#45;&gt;A XOR B</title>
<path fill="none" stroke="#ff0000" stroke-width=".3544" d="M136.5538,-275.8293C139.9061,-259.3101 145.9448,-222.4638 140.6174,-192.0003 133.6049,-151.9011 116.4345,-108.8061 102.4144,-78.1645"/>
<polygon fill="#ff0000" stroke="#ff0000" stroke-width=".3544" points="105.5743,-76.659 98.1792,-69.0719 99.2288,-79.6147 105.5743,-76.659"/>
</g>
<!-- B&#45;&gt;355 -->
<g id="edge2" class="edge">
<title>B&#45;&gt;355</title>
<path fill="none" stroke="#00ff00" stroke-width=".795" d="M131.5778,-275.9027C128.8931,-268.2355 124.8182,-256.5981 120.973,-245.6165"/>
<polygon fill="#00ff00" stroke="#00ff00" stroke-width=".795" points="124.1608,-244.1298 117.5526,-235.8483 117.5541,-246.4432 124.1608,-244.1298"/>
</g>
<!-- 1112&#45;&gt;A XOR B -->
<g id="edge9" class="edge">
<title>1112&#45;&gt;A XOR B</title>
<path fill="none" stroke="#00ff00" stroke-width=".4272" d="M57.964,-109.6741C60.7302,-101.1076 63.9808,-91.0412 67.1716,-81.1602"/>
<polygon fill="#00ff00" stroke="#00ff00" stroke-width=".4272" points="70.5799,-81.995 70.3222,-71.4033 63.9186,-79.8439 70.5799,-81.995"/>
</g>
<!-- 355&#45;&gt;A XOR B -->
<g id="edge3" class="edge">
<title>355&#45;&gt;A XOR B</title>
<path fill="none" stroke="#00ff00" stroke-width="1.4942" d="M107.2907,-195.4375C102.871,-168.0632 94.9371,-118.9232 89.055,-82.4906"/>
<polygon fill="#00ff00" stroke="#00ff00" stroke-width="1.4942" points="92.5041,-81.8947 87.4549,-72.5804 85.5936,-83.0105 92.5041,-81.8947"/>
</g>
<!-- 355&#45;&gt;1112 -->
<g id="edge8" class="edge">
<title>355&#45;&gt;1112</title>
<path fill="none" stroke="#00ff00" stroke-width=".1569" d="M98.1854,-198.7164C90.2091,-187.6005 79.6746,-172.9195 70.5471,-160.1992"/>
<polygon fill="#00ff00" stroke="#00ff00" stroke-width=".1569" points="73.1752,-157.8583 64.5016,-151.774 67.4879,-161.9393 73.1752,-157.8583"/>
</g>
<!-- 1420&#45;&gt;1112 -->
<g id="edge7" class="edge">
<title>1420&#45;&gt;1112</title>
<path fill="none" stroke="#00ff00" stroke-width=".2714" d="M48.4851,-191.8564C48.7705,-183.9009 49.0934,-174.9035 49.3998,-166.361"/>
<polygon fill="#00ff00" stroke="#00ff00" stroke-width=".2714" points="52.9011,-166.3863 49.762,-156.2672 45.9056,-166.1353 52.9011,-166.3863"/>
</g>
</g>
</svg>
